# xmcd CD database file
#
# Track frame offsets:
#	150
#	26141
#	47653
#	64589
#	89884
#	108748
#	140987
#	173485
#	201519
#	242478
#	266188
#	296243
#	325204
#
# Disc length: 4750 seconds
#
# Revision: 2
# Processed by: cddbd v1.5.2PL0 Copyright (c) Steve Scherf et al.
# Submitted via: CDex 1.70
#
DISCID=d4128c0d
DTITLE=Jazz Band 47 - Dreikoenigsjazz 2014
DYEAR=2014
DGENRE=Jazz
TTITLE0=Bourbon Street Parade
TTITLE1=The world is waitig for the sunrise
TTITLE2=Stevedore Stomp
TTITLE3=Wabash Blues
TTITLE4=Goody Goody
TTITLE5=Won't you come home Bill Bailey
TTITLE6=The Sheik of Araby
TTITLE7=Tin Roof Blues
TTITLE8=Comes Love
TTITLE9=Please don't talk about me
TTITLE10=Buona Sera
TTITLE11=Royal Garden Blues
TTITLE12=Careless Love
EXTD=YEAR: 2014
EXTT0=
EXTT1=
EXTT2=
EXTT3=
EXTT4=
EXTT5=
EXTT6=
EXTT7=
EXTT8=
EXTT9=
EXTT10=
EXTT11=
EXTT12=
PLAYORDER=
